<svg width="60" height="60" viewBox="0 0 60 60" fill="none" xmlns="http://www.w3.org/2000/svg">
<rect width="60" height="60" rx="16" fill="white"/>
<g clip-path="url(#clip0_13210_9715)">
<path d="M29.5 11.3726C31.1569 11.3726 32.5 10.0558 32.5 8.43141C32.5 6.80704 31.1569 5.49023 29.5 5.49023C27.8431 5.49023 26.5 6.80704 26.5 8.43141C26.5 10.0558 27.8431 11.3726 29.5 11.3726Z" fill="black" stroke="black"/>
<path d="M43.9671 43.7882C39.5091 48.1588 34.5227 51.285 29.8439 52.9401C35.8252 55.056 41.304 54.7677 44.5335 51.6015C47.119 49.0666 47.8231 45.1184 46.8936 40.6355C45.99 41.7079 45.0135 42.7624 43.9671 43.7882Z" fill="#FF3F8F"/>
<path d="M15.7207 43.7882C14.6743 42.7624 13.6978 41.7079 12.7942 40.6355C11.8647 45.1184 12.5688 49.0666 15.1543 51.6015C18.3838 54.7677 23.8625 55.056 29.8439 52.9401C25.1651 51.285 20.1787 48.1588 15.7207 43.7882Z" fill="#0094E8"/>
<path d="M23.1239 23.3535C25.2724 21.2471 27.5436 19.4299 29.8439 17.9269C21.2692 12.3247 12.2895 11.0911 7.75125 15.5403C2.58851 20.6018 4.92737 31.2986 12.7943 40.6354C13.9339 35.1388 17.5294 28.8383 23.1239 23.3535Z" fill="#FF3F8F"/>
<path d="M36.564 23.3536C42.1584 28.8383 45.7539 35.1388 46.8936 40.6354C54.7605 31.2986 57.0993 20.6019 51.9366 15.5403C47.3983 11.0911 38.4186 12.3247 29.8439 17.9269C32.1442 19.4299 34.4155 21.2472 36.564 23.3536Z" fill="#0094E8"/>
<path d="M29.8768 17.8643C27.5764 19.3672 25.3053 21.1845 23.1568 23.2908C17.5623 28.7756 13.9668 35.0761 12.8271 40.5727C13.7307 41.645 14.7072 42.6996 15.7536 43.7254C20.2117 48.096 25.198 51.2222 29.8768 52.8773C34.5556 51.2222 39.542 48.096 44 43.7254C45.0464 42.6996 46.0229 41.645 46.9265 40.5727C45.7868 35.0761 42.1913 28.7756 36.5969 23.2908C34.4484 21.1845 32.1771 19.3672 29.8768 17.8643Z" fill="#333333"/>
</g>
<defs>
<clipPath id="clip0_13210_9715">
<rect width="50" height="50" fill="white" transform="translate(5 5)"/>
</clipPath>
</defs>
</svg>
